# xmcd
#
# Track frame offsets: 
#        150
#        23904
#        103376
#        128487
#        156070
#        181626
#
# Disc length: 2956 seconds
#
# Revision: 4
# Processed by: cddbd v1.5.2PL0 Copyright (c) Steve Scherf et al.
# Submitted via: ExactAudioCopy v1.0b2
#
DISCID=400b8a06
DTITLE=Graham Collier Sextet - Down Another Road
DYEAR=2000
DGENRE=Contemporary Jazz
TTITLE0=Down Another Road
TTITLE1=Danish Blue
TTITLE2=The Barley Mow
TTITLE3=Aberdeen Angus
TTITLE4=Lullaby for a Lonely Child
TTITLE5=Molewrench
EXTD=YEAR: 1969
EXTT0=
EXTT1=
EXTT2=
EXTT3=
EXTT4=
EXTT5=
PLAYORDER=
